<?xml version="1.0" encoding="utf-8"?>
<!-- Generator: Adobe Illustrator 23.0.4, SVG Export Plug-In . SVG Version: 6.00 Build 0)  -->
<svg version="1.1" id="Layer_1" xmlns="http://www.w3.org/2000/svg" xmlns:xlink="http://www.w3.org/1999/xlink" x="0px" y="0px"
	 viewBox="0 0 800 800" style="enable-background:new 0 0 800 800;" xml:space="preserve">
<style type="text/css">
	.st0{fill:#A6B29C;}
</style>
<path class="st0" d="M533.79,44.87l-82.83,147.94l-22.09-39.38l60.75-108.56H533.79z M585.68,44.87h45.34L499.5,279.72l-22.67-40.54
	L585.68,44.87z M327.43,323.75L171.21,44.87h45.34l151.14,270.01C353.88,316.77,340.37,319.68,327.43,323.75 M312.61,44.87
	l155.07,276.84c-15.69-4.5-32.12-7.41-48.97-8.57L268.43,44.87H312.61z M503.42,536.07l-47.08,38.52l14.24,58.27
	c1.89,8.57-4.65,15.69-11.92,15.69c-2.18,0-4.5-0.58-6.68-2.03l-51.45-31.68l-50.87,31.68c-2.18,1.45-4.5,2.03-6.68,2.03
	c-7.56,0-14.24-7.12-11.92-15.69l14.24-58.27l-46.5-38.36c-8.72-7.42-3.78-21.65,7.41-22.38l60.16-4.36l22.96-55.8
	c2.18-5.24,6.98-7.85,11.77-7.85c4.79,0,9.59,2.62,11.77,7.85l22.96,55.8l60.16,4.36C507.05,514.42,512.14,528.66,503.42,536.07
	 M401.11,710.9c-84.87,0-153.9-69.03-153.9-153.9s69.03-153.75,153.9-153.75s153.9,69.03,153.9,153.9S485.99,710.9,401.11,710.9
	 M401.11,357.47c-110.01,0-199.68,89.52-199.68,199.68c0,110.01,89.52,199.68,199.68,199.68s199.68-89.52,199.68-199.68
	S511.12,357.47,401.11,357.47"/>
</svg>
